<?xml version="1.0" standalone="no"?>
<!DOCTYPE svg PUBLIC "-//W3C//DTD SVG 20010904//EN"
 "http://www.w3.org/TR/2001/REC-SVG-20010904/DTD/svg10.dtd">
<svg version="1.0" xmlns="http://www.w3.org/2000/svg"
 width="500.000000pt" height="500.000000pt" viewBox="0 0 500.000000 500.000000"
 preserveAspectRatio="xMidYMid meet">

<g transform="translate(0.000000,500.000000) scale(0.100000,-0.100000)"
fill="#000000" stroke="none">
<path d="M2203 3367 c-155 -90 -288 -169 -297 -176 -14 -12 -16 -56 -16 -367
l0 -353 33 -24 c65 -49 555 -327 575 -327 20 0 559 306 595 338 15 13 17 35
17 168 0 84 -3 155 -7 157 -5 3 -32 -9 -60 -25 l-53 -30 0 -88 c0 -69 -4 -92
-17 -108 -25 -28 -450 -272 -474 -272 -23 0 -443 240 -474 271 -19 18 -20 35
-23 282 -2 196 1 268 10 286 17 31 452 284 487 284 27 0 428 -228 469 -266 20
-19 22 -29 22 -143 0 -68 4 -125 8 -128 4 -2 31 9 60 26 l52 30 0 132 c0 90
-4 137 -12 148 -16 21 -581 348 -600 348 -7 0 -140 -73 -295 -163z"/>
<path d="M2315 3185 c-180 -105 -187 -110 -183 -133 4 -22 332 -212 365 -212
14 0 81 32 148 70 67 39 125 70 129 70 3 0 6 -72 6 -160 l0 -159 -127 -76
c-71 -41 -139 -75 -153 -75 -15 0 -82 33 -150 73 l-125 72 -5 112 c-3 61 -7
113 -10 115 -12 10 -99 58 -104 58 -3 0 -6 -78 -6 -174 0 -127 3 -176 13 -184
46 -38 363 -212 385 -212 16 0 102 44 212 108 l185 108 3 236 2 236 -55 31
c-30 17 -60 31 -67 31 -7 0 -67 -31 -134 -70 -66 -38 -133 -70 -147 -70 -30 0
-137 60 -137 77 0 13 88 70 124 79 13 3 36 -1 52 -9 27 -14 32 -13 79 14 28
16 50 34 50 41 0 16 -143 98 -170 97 -11 0 -92 -42 -180 -94z"/>
<path d="M1130 1685 l0 -145 123 0 c67 0 127 4 133 8 25 16 34 55 34 142 0 83
-2 93 -25 115 -23 24 -30 25 -145 25 l-120 0 0 -145z m230 0 l0 -85 -85 0 -85
0 0 85 0 85 85 0 85 0 0 -85z"/>
<path d="M1503 1815 c-22 -15 -23 -23 -23 -146 l0 -129 25 0 c24 0 25 3 25 60
l0 61 88 -3 87 -3 3 -57 c3 -54 5 -58 27 -58 l25 0 0 129 c0 107 -3 131 -17
142 -26 22 -211 25 -240 4z m207 -75 l0 -30 -90 0 -90 0 0 30 0 30 90 0 90 0
0 -30z"/>
<path d="M1820 1800 l0 -30 60 0 60 0 0 -115 0 -115 25 0 25 0 0 115 0 115 60
0 60 0 0 30 0 30 -145 0 -145 0 0 -30z"/>
<path d="M2193 1815 c-22 -15 -23 -23 -23 -146 l0 -129 25 0 c24 0 25 3 25 60
l0 61 88 -3 87 -3 3 -57 c3 -54 5 -58 27 -58 l25 0 0 129 c0 107 -3 131 -17
142 -26 22 -211 25 -240 4z m207 -75 l0 -30 -90 0 -90 0 0 30 0 30 90 0 90 0
0 -30z"/>
<path d="M2523 1823 c-10 -3 -13 -42 -13 -144 l0 -139 25 0 c25 0 25 0 25 97
l0 98 99 -99 c69 -69 104 -97 115 -93 14 5 16 28 16 147 l0 140 -25 0 c-25 0
-25 0 -25 -97 l0 -97 -99 97 c-54 53 -100 97 -102 96 -2 0 -10 -3 -16 -6z"/>
<path d="M2875 1806 c-23 -23 -25 -32 -25 -116 0 -87 9 -126 34 -142 6 -4 57
-8 114 -8 138 0 142 4 142 143 0 141 0 141 -134 145 -101 4 -106 3 -131 -22z
m205 -121 l0 -85 -85 0 -85 0 0 85 0 85 85 0 85 0 0 -85z"/>
<path d="M3200 1737 l0 -93 62 -52 c35 -29 70 -52 79 -52 10 0 45 23 78 51
l61 51 0 94 c0 94 0 94 -25 94 -25 0 -25 -1 -25 -79 l0 -80 -45 -36 -44 -37
-46 38 -45 38 0 78 c0 77 0 78 -25 78 -25 0 -25 0 -25 -93z"/>
<path d="M3565 1806 c-24 -24 -25 -30 -25 -146 l0 -120 30 0 30 0 0 60 0 60
85 0 85 0 0 -60 0 -60 30 0 30 0 0 123 c0 164 2 161 -134 165 -101 4 -106 3
-131 -22z m205 -66 l0 -30 -85 0 -85 0 0 30 0 30 85 0 85 0 0 -30z"/>
</g>
</svg>
